# xmcd
#
# Track frame offsets:
#	150
#	15113
#	29886
#	42504
#	62171
#	76728
#	92195
#	110934
#	128627
#	139259
#	154135
#	169741
#
# Disc length: 2457 seconds
#
# Revision: 0
# Processed by: cddbd v1.5.1PL0 Copyright (c) Steve Scherf et al.
# Submitted via: dBpowerAMP V4.0
#
DISCID=a009970c
DTITLE=David Saw - Different Story
DYEAR=2003
DGENRE=Pop-Folk
TTITLE0=Hanging With The Big Guns
TTITLE1=Big Deal
TTITLE2=Let It Play
TTITLE3=Love After Wine
TTITLE4=Need To Know
TTITLE5=Different Story
TTITLE6=Coward For You
TTITLE7=For This Night
TTITLE8=She Just Wants
TTITLE9=Love Inside
TTITLE10=Into The Dark
TTITLE11=Better Than A Woman
EXTD=
EXTT0=
EXTT1=
EXTT2=
EXTT3=
EXTT4=
EXTT5=
EXTT6=
EXTT7=
EXTT8=
EXTT9=
EXTT10=
EXTT11=
PLAYORDER=
